<mxfile host="app.diagrams.net" agent="Mozilla/5.0 (Macintosh; Intel Mac OS X 10_15_7) AppleWebKit/537.36 (KHTML, like Gecko) Chrome/136.0.0.0 Safari/537.36" version="26.2.14">
  <diagram name="Page-1" id="P7ucVcI8DYBkcFTdWpxY">
    <mxGraphModel grid="1" page="1" gridSize="10" guides="1" tooltips="1" connect="1" arrows="1" fold="1" pageScale="1" pageWidth="1200" pageHeight="1920" math="0" shadow="0">
      <root>
        <mxCell id="0" />
        <mxCell id="1" parent="0" />
        <mxCell id="MPVjwGa3bfI3qeMAtvyZ-8" style="rounded=0;orthogonalLoop=1;jettySize=auto;html=1;entryX=0.5;entryY=0;entryDx=0;entryDy=0;endArrow=none;startFill=0;" edge="1" parent="1" source="NQhegDD_S1JE1NjUG0MG-1" target="MPVjwGa3bfI3qeMAtvyZ-7">
          <mxGeometry relative="1" as="geometry" />
        </mxCell>
        <mxCell id="MPVjwGa3bfI3qeMAtvyZ-12" value="1" style="edgeLabel;html=1;align=center;verticalAlign=middle;resizable=0;points=[];" connectable="0" vertex="1" parent="MPVjwGa3bfI3qeMAtvyZ-8">
          <mxGeometry x="0.3586" y="1" relative="1" as="geometry">
            <mxPoint as="offset" />
          </mxGeometry>
        </mxCell>
        <mxCell id="NQhegDD_S1JE1NjUG0MG-1" value="Employee" style="rounded=0;whiteSpace=wrap;html=1;" vertex="1" parent="1">
          <mxGeometry x="360" y="390" width="80" height="40" as="geometry" />
        </mxCell>
        <mxCell id="NQhegDD_S1JE1NjUG0MG-2" value="&lt;u&gt;Email&lt;/u&gt;" style="ellipse;whiteSpace=wrap;html=1;" vertex="1" parent="1">
          <mxGeometry x="370" y="10" width="80" height="40" as="geometry" />
        </mxCell>
        <mxCell id="NQhegDD_S1JE1NjUG0MG-24" style="rounded=0;orthogonalLoop=1;jettySize=auto;html=1;entryX=0;entryY=1;entryDx=0;entryDy=0;exitX=1;exitY=0.5;exitDx=0;exitDy=0;endArrow=none;startFill=0;" edge="1" parent="1" source="NQhegDD_S1JE1NjUG0MG-3" target="NQhegDD_S1JE1NjUG0MG-19">
          <mxGeometry relative="1" as="geometry" />
        </mxCell>
        <mxCell id="NQhegDD_S1JE1NjUG0MG-25" style="rounded=0;orthogonalLoop=1;jettySize=auto;html=1;entryX=0;entryY=0.5;entryDx=0;entryDy=0;exitX=1;exitY=0.5;exitDx=0;exitDy=0;endArrow=none;startFill=0;" edge="1" parent="1" source="NQhegDD_S1JE1NjUG0MG-3" target="NQhegDD_S1JE1NjUG0MG-18">
          <mxGeometry relative="1" as="geometry" />
        </mxCell>
        <mxCell id="NQhegDD_S1JE1NjUG0MG-27" style="rounded=0;orthogonalLoop=1;jettySize=auto;html=1;entryX=0;entryY=0.5;entryDx=0;entryDy=0;exitX=1;exitY=0.5;exitDx=0;exitDy=0;endArrow=none;startFill=0;" edge="1" parent="1" source="NQhegDD_S1JE1NjUG0MG-3" target="NQhegDD_S1JE1NjUG0MG-26">
          <mxGeometry relative="1" as="geometry" />
        </mxCell>
        <mxCell id="NQhegDD_S1JE1NjUG0MG-32" style="rounded=0;orthogonalLoop=1;jettySize=auto;html=1;exitX=1;exitY=0.5;exitDx=0;exitDy=0;entryX=0;entryY=0.5;entryDx=0;entryDy=0;endArrow=none;startFill=0;" edge="1" parent="1" source="NQhegDD_S1JE1NjUG0MG-3" target="NQhegDD_S1JE1NjUG0MG-28">
          <mxGeometry relative="1" as="geometry" />
        </mxCell>
        <mxCell id="NQhegDD_S1JE1NjUG0MG-34" style="rounded=0;orthogonalLoop=1;jettySize=auto;html=1;entryX=0;entryY=0.5;entryDx=0;entryDy=0;exitX=1;exitY=0.5;exitDx=0;exitDy=0;endArrow=none;startFill=0;" edge="1" parent="1" source="NQhegDD_S1JE1NjUG0MG-3" target="NQhegDD_S1JE1NjUG0MG-33">
          <mxGeometry relative="1" as="geometry" />
        </mxCell>
        <mxCell id="NQhegDD_S1JE1NjUG0MG-36" style="rounded=0;orthogonalLoop=1;jettySize=auto;html=1;entryX=0;entryY=0.5;entryDx=0;entryDy=0;exitX=1;exitY=0.5;exitDx=0;exitDy=0;endArrow=none;startFill=0;" edge="1" parent="1" source="NQhegDD_S1JE1NjUG0MG-3" target="NQhegDD_S1JE1NjUG0MG-35">
          <mxGeometry relative="1" as="geometry" />
        </mxCell>
        <mxCell id="MPVjwGa3bfI3qeMAtvyZ-2" style="edgeStyle=orthogonalEdgeStyle;rounded=0;orthogonalLoop=1;jettySize=auto;html=1;exitX=0.5;exitY=1;exitDx=0;exitDy=0;strokeWidth=2;" edge="1" parent="1" source="NQhegDD_S1JE1NjUG0MG-3">
          <mxGeometry relative="1" as="geometry">
            <mxPoint x="480" y="330" as="targetPoint" />
          </mxGeometry>
        </mxCell>
        <mxCell id="MPVjwGa3bfI3qeMAtvyZ-51" style="rounded=0;orthogonalLoop=1;jettySize=auto;html=1;entryX=0;entryY=0.5;entryDx=0;entryDy=0;exitX=1;exitY=0.5;exitDx=0;exitDy=0;" edge="1" parent="1" source="NQhegDD_S1JE1NjUG0MG-3" target="MPVjwGa3bfI3qeMAtvyZ-50">
          <mxGeometry relative="1" as="geometry" />
        </mxCell>
        <mxCell id="NQhegDD_S1JE1NjUG0MG-3" value="UserInfo" style="rounded=0;whiteSpace=wrap;html=1;" vertex="1" parent="1">
          <mxGeometry x="440" y="240" width="80" height="40" as="geometry" />
        </mxCell>
        <mxCell id="NQhegDD_S1JE1NjUG0MG-63" style="rounded=0;orthogonalLoop=1;jettySize=auto;html=1;entryX=1;entryY=0.5;entryDx=0;entryDy=0;exitX=0;exitY=0.5;exitDx=0;exitDy=0;endArrow=none;startFill=0;" edge="1" parent="1" source="NQhegDD_S1JE1NjUG0MG-4" target="NQhegDD_S1JE1NjUG0MG-48">
          <mxGeometry relative="1" as="geometry" />
        </mxCell>
        <mxCell id="NQhegDD_S1JE1NjUG0MG-64" style="rounded=0;orthogonalLoop=1;jettySize=auto;html=1;entryX=1;entryY=0.5;entryDx=0;entryDy=0;exitX=0;exitY=0.5;exitDx=0;exitDy=0;endArrow=none;startFill=0;" edge="1" parent="1" source="NQhegDD_S1JE1NjUG0MG-4" target="NQhegDD_S1JE1NjUG0MG-47">
          <mxGeometry relative="1" as="geometry" />
        </mxCell>
        <mxCell id="NQhegDD_S1JE1NjUG0MG-65" style="rounded=0;orthogonalLoop=1;jettySize=auto;html=1;entryX=1;entryY=0.5;entryDx=0;entryDy=0;endArrow=none;startFill=0;" edge="1" parent="1" source="NQhegDD_S1JE1NjUG0MG-4" target="NQhegDD_S1JE1NjUG0MG-51">
          <mxGeometry relative="1" as="geometry" />
        </mxCell>
        <mxCell id="NQhegDD_S1JE1NjUG0MG-66" style="rounded=0;orthogonalLoop=1;jettySize=auto;html=1;entryX=1;entryY=0.5;entryDx=0;entryDy=0;exitX=0;exitY=0.5;exitDx=0;exitDy=0;endArrow=none;startFill=0;" edge="1" parent="1" source="NQhegDD_S1JE1NjUG0MG-4" target="NQhegDD_S1JE1NjUG0MG-53">
          <mxGeometry relative="1" as="geometry" />
        </mxCell>
        <mxCell id="NQhegDD_S1JE1NjUG0MG-67" style="rounded=0;orthogonalLoop=1;jettySize=auto;html=1;entryX=1;entryY=0.5;entryDx=0;entryDy=0;exitX=0;exitY=0.5;exitDx=0;exitDy=0;endArrow=none;startFill=0;" edge="1" parent="1" source="NQhegDD_S1JE1NjUG0MG-4" target="NQhegDD_S1JE1NjUG0MG-58">
          <mxGeometry relative="1" as="geometry" />
        </mxCell>
        <mxCell id="MPVjwGa3bfI3qeMAtvyZ-15" style="rounded=0;orthogonalLoop=1;jettySize=auto;html=1;entryX=0.5;entryY=0;entryDx=0;entryDy=0;endArrow=none;startFill=0;" edge="1" parent="1" source="NQhegDD_S1JE1NjUG0MG-4" target="MPVjwGa3bfI3qeMAtvyZ-14">
          <mxGeometry relative="1" as="geometry" />
        </mxCell>
        <mxCell id="MPVjwGa3bfI3qeMAtvyZ-18" value="1" style="edgeLabel;html=1;align=center;verticalAlign=middle;resizable=0;points=[];" connectable="0" vertex="1" parent="MPVjwGa3bfI3qeMAtvyZ-15">
          <mxGeometry x="-0.3314" y="5" relative="1" as="geometry">
            <mxPoint y="1" as="offset" />
          </mxGeometry>
        </mxCell>
        <mxCell id="MPVjwGa3bfI3qeMAtvyZ-31" style="rounded=0;orthogonalLoop=1;jettySize=auto;html=1;entryX=1;entryY=0.5;entryDx=0;entryDy=0;exitX=0;exitY=0.5;exitDx=0;exitDy=0;endArrow=none;startFill=0;" edge="1" parent="1" source="NQhegDD_S1JE1NjUG0MG-4" target="MPVjwGa3bfI3qeMAtvyZ-30">
          <mxGeometry relative="1" as="geometry" />
        </mxCell>
        <mxCell id="MPVjwGa3bfI3qeMAtvyZ-44" style="edgeStyle=orthogonalEdgeStyle;rounded=0;orthogonalLoop=1;jettySize=auto;html=1;entryX=0;entryY=0.5;entryDx=0;entryDy=0;" edge="1" parent="1" source="NQhegDD_S1JE1NjUG0MG-4" target="MPVjwGa3bfI3qeMAtvyZ-43">
          <mxGeometry relative="1" as="geometry" />
        </mxCell>
        <mxCell id="MPVjwGa3bfI3qeMAtvyZ-46" value="1" style="edgeLabel;html=1;align=center;verticalAlign=middle;resizable=0;points=[];" connectable="0" vertex="1" parent="MPVjwGa3bfI3qeMAtvyZ-44">
          <mxGeometry x="0.1206" y="-2" relative="1" as="geometry">
            <mxPoint as="offset" />
          </mxGeometry>
        </mxCell>
        <mxCell id="MPVjwGa3bfI3qeMAtvyZ-49" style="rounded=0;orthogonalLoop=1;jettySize=auto;html=1;entryX=1;entryY=0.5;entryDx=0;entryDy=0;exitX=0;exitY=0.5;exitDx=0;exitDy=0;" edge="1" parent="1" source="NQhegDD_S1JE1NjUG0MG-4" target="MPVjwGa3bfI3qeMAtvyZ-48">
          <mxGeometry relative="1" as="geometry" />
        </mxCell>
        <mxCell id="NQhegDD_S1JE1NjUG0MG-4" value="Client" style="rounded=0;whiteSpace=wrap;html=1;" vertex="1" parent="1">
          <mxGeometry x="20" y="370" width="80" height="40" as="geometry" />
        </mxCell>
        <mxCell id="NQhegDD_S1JE1NjUG0MG-5" value="Admin" style="rounded=0;whiteSpace=wrap;html=1;" vertex="1" parent="1">
          <mxGeometry x="520" y="390" width="80" height="40" as="geometry" />
        </mxCell>
        <mxCell id="NQhegDD_S1JE1NjUG0MG-6" value="UserID" style="ellipse;whiteSpace=wrap;html=1;" vertex="1" parent="1">
          <mxGeometry x="310" y="50" width="80" height="40" as="geometry" />
        </mxCell>
        <mxCell id="NQhegDD_S1JE1NjUG0MG-10" style="rounded=0;orthogonalLoop=1;jettySize=auto;html=1;entryX=1;entryY=0.5;entryDx=0;entryDy=0;exitX=0.5;exitY=0;exitDx=0;exitDy=0;endArrow=none;startFill=0;" edge="1" parent="1" source="NQhegDD_S1JE1NjUG0MG-7" target="NQhegDD_S1JE1NjUG0MG-6">
          <mxGeometry relative="1" as="geometry" />
        </mxCell>
        <mxCell id="NQhegDD_S1JE1NjUG0MG-11" style="rounded=0;orthogonalLoop=1;jettySize=auto;html=1;entryX=1;entryY=1;entryDx=0;entryDy=0;exitX=0.5;exitY=0;exitDx=0;exitDy=0;endArrow=none;startFill=0;" edge="1" parent="1" source="NQhegDD_S1JE1NjUG0MG-7" target="NQhegDD_S1JE1NjUG0MG-2">
          <mxGeometry relative="1" as="geometry" />
        </mxCell>
        <mxCell id="NQhegDD_S1JE1NjUG0MG-13" style="rounded=0;orthogonalLoop=1;jettySize=auto;html=1;entryX=0;entryY=1;entryDx=0;entryDy=0;exitX=0.5;exitY=0;exitDx=0;exitDy=0;endArrow=none;startFill=0;" edge="1" parent="1" source="NQhegDD_S1JE1NjUG0MG-7" target="NQhegDD_S1JE1NjUG0MG-8">
          <mxGeometry relative="1" as="geometry" />
        </mxCell>
        <mxCell id="NQhegDD_S1JE1NjUG0MG-14" style="rounded=0;orthogonalLoop=1;jettySize=auto;html=1;entryX=0;entryY=1;entryDx=0;entryDy=0;exitX=0.5;exitY=0;exitDx=0;exitDy=0;endArrow=none;startFill=0;" edge="1" parent="1" source="NQhegDD_S1JE1NjUG0MG-7" target="NQhegDD_S1JE1NjUG0MG-9">
          <mxGeometry relative="1" as="geometry" />
        </mxCell>
        <mxCell id="NQhegDD_S1JE1NjUG0MG-15" style="edgeStyle=orthogonalEdgeStyle;rounded=0;orthogonalLoop=1;jettySize=auto;html=1;endArrow=none;startFill=0;entryX=0.5;entryY=0;entryDx=0;entryDy=0;" edge="1" parent="1" source="NQhegDD_S1JE1NjUG0MG-7" target="NQhegDD_S1JE1NjUG0MG-3">
          <mxGeometry relative="1" as="geometry" />
        </mxCell>
        <mxCell id="NQhegDD_S1JE1NjUG0MG-17" style="rounded=0;orthogonalLoop=1;jettySize=auto;html=1;entryX=0;entryY=0.5;entryDx=0;entryDy=0;exitX=0.5;exitY=0;exitDx=0;exitDy=0;endArrow=none;startFill=0;" edge="1" parent="1" source="NQhegDD_S1JE1NjUG0MG-7" target="NQhegDD_S1JE1NjUG0MG-16">
          <mxGeometry relative="1" as="geometry" />
        </mxCell>
        <mxCell id="NQhegDD_S1JE1NjUG0MG-30" style="rounded=0;orthogonalLoop=1;jettySize=auto;html=1;exitX=0.5;exitY=0;exitDx=0;exitDy=0;entryX=1;entryY=0.5;entryDx=0;entryDy=0;endArrow=none;startFill=0;" edge="1" parent="1" source="NQhegDD_S1JE1NjUG0MG-7" target="NQhegDD_S1JE1NjUG0MG-29">
          <mxGeometry relative="1" as="geometry" />
        </mxCell>
        <mxCell id="NQhegDD_S1JE1NjUG0MG-7" value="User" style="rounded=0;whiteSpace=wrap;html=1;" vertex="1" parent="1">
          <mxGeometry x="440" y="140" width="80" height="40" as="geometry" />
        </mxCell>
        <mxCell id="NQhegDD_S1JE1NjUG0MG-8" value="Username" style="ellipse;whiteSpace=wrap;html=1;" vertex="1" parent="1">
          <mxGeometry x="470" width="80" height="40" as="geometry" />
        </mxCell>
        <mxCell id="NQhegDD_S1JE1NjUG0MG-9" value="Password" style="ellipse;whiteSpace=wrap;html=1;" vertex="1" parent="1">
          <mxGeometry x="570" y="20" width="80" height="40" as="geometry" />
        </mxCell>
        <mxCell id="NQhegDD_S1JE1NjUG0MG-16" value="LastLogin" style="ellipse;whiteSpace=wrap;html=1;" vertex="1" parent="1">
          <mxGeometry x="610" y="70" width="80" height="40" as="geometry" />
        </mxCell>
        <mxCell id="NQhegDD_S1JE1NjUG0MG-22" style="rounded=0;orthogonalLoop=1;jettySize=auto;html=1;entryX=0;entryY=0.5;entryDx=0;entryDy=0;endArrow=none;startFill=0;" edge="1" parent="1" source="NQhegDD_S1JE1NjUG0MG-18" target="NQhegDD_S1JE1NjUG0MG-21">
          <mxGeometry relative="1" as="geometry" />
        </mxCell>
        <mxCell id="NQhegDD_S1JE1NjUG0MG-23" style="rounded=0;orthogonalLoop=1;jettySize=auto;html=1;entryX=0;entryY=0.5;entryDx=0;entryDy=0;endArrow=none;startFill=0;" edge="1" parent="1" source="NQhegDD_S1JE1NjUG0MG-18" target="NQhegDD_S1JE1NjUG0MG-20">
          <mxGeometry relative="1" as="geometry" />
        </mxCell>
        <mxCell id="NQhegDD_S1JE1NjUG0MG-18" value="Name" style="ellipse;whiteSpace=wrap;html=1;" vertex="1" parent="1">
          <mxGeometry x="740" y="200" width="80" height="40" as="geometry" />
        </mxCell>
        <mxCell id="NQhegDD_S1JE1NjUG0MG-19" value="UserInfoID" style="ellipse;whiteSpace=wrap;html=1;" vertex="1" parent="1">
          <mxGeometry x="690" y="150" width="80" height="40" as="geometry" />
        </mxCell>
        <mxCell id="NQhegDD_S1JE1NjUG0MG-20" value="LastName" style="ellipse;whiteSpace=wrap;html=1;" vertex="1" parent="1">
          <mxGeometry x="840" y="230" width="80" height="40" as="geometry" />
        </mxCell>
        <mxCell id="NQhegDD_S1JE1NjUG0MG-21" value="FirstName" style="ellipse;whiteSpace=wrap;html=1;" vertex="1" parent="1">
          <mxGeometry x="840" y="170" width="80" height="40" as="geometry" />
        </mxCell>
        <mxCell id="NQhegDD_S1JE1NjUG0MG-26" value="DateOfBirth" style="ellipse;whiteSpace=wrap;html=1;" vertex="1" parent="1">
          <mxGeometry x="730" y="250" width="80" height="40" as="geometry" />
        </mxCell>
        <mxCell id="NQhegDD_S1JE1NjUG0MG-28" value="DateOfHire" style="ellipse;whiteSpace=wrap;html=1;" vertex="1" parent="1">
          <mxGeometry x="770" y="300" width="80" height="40" as="geometry" />
        </mxCell>
        <mxCell id="NQhegDD_S1JE1NjUG0MG-29" value="" style="ellipse;whiteSpace=wrap;html=1;" vertex="1" parent="1">
          <mxGeometry x="300" y="100" width="80" height="40" as="geometry" />
        </mxCell>
        <mxCell id="NQhegDD_S1JE1NjUG0MG-31" value="UserType" style="ellipse;whiteSpace=wrap;html=1;" vertex="1" parent="1">
          <mxGeometry x="310" y="100" width="60" height="40" as="geometry" />
        </mxCell>
        <mxCell id="NQhegDD_S1JE1NjUG0MG-33" value="PhoneNumber" style="ellipse;whiteSpace=wrap;html=1;" vertex="1" parent="1">
          <mxGeometry x="770" y="350" width="80" height="40" as="geometry" />
        </mxCell>
        <mxCell id="NQhegDD_S1JE1NjUG0MG-41" style="rounded=0;orthogonalLoop=1;jettySize=auto;html=1;entryX=0;entryY=0.5;entryDx=0;entryDy=0;exitX=1;exitY=0.5;exitDx=0;exitDy=0;endArrow=none;startFill=0;" edge="1" parent="1" source="NQhegDD_S1JE1NjUG0MG-35" target="NQhegDD_S1JE1NjUG0MG-37">
          <mxGeometry relative="1" as="geometry" />
        </mxCell>
        <mxCell id="NQhegDD_S1JE1NjUG0MG-42" style="rounded=0;orthogonalLoop=1;jettySize=auto;html=1;entryX=0;entryY=0.5;entryDx=0;entryDy=0;endArrow=none;startFill=0;" edge="1" parent="1" source="NQhegDD_S1JE1NjUG0MG-35" target="NQhegDD_S1JE1NjUG0MG-38">
          <mxGeometry relative="1" as="geometry" />
        </mxCell>
        <mxCell id="NQhegDD_S1JE1NjUG0MG-43" style="rounded=0;orthogonalLoop=1;jettySize=auto;html=1;entryX=0;entryY=0.5;entryDx=0;entryDy=0;exitX=1;exitY=0.5;exitDx=0;exitDy=0;endArrow=none;startFill=0;" edge="1" parent="1" source="NQhegDD_S1JE1NjUG0MG-35" target="NQhegDD_S1JE1NjUG0MG-39">
          <mxGeometry relative="1" as="geometry" />
        </mxCell>
        <mxCell id="NQhegDD_S1JE1NjUG0MG-44" style="rounded=0;orthogonalLoop=1;jettySize=auto;html=1;entryX=0;entryY=0.5;entryDx=0;entryDy=0;exitX=1;exitY=0.5;exitDx=0;exitDy=0;endArrow=none;startFill=0;" edge="1" parent="1" source="NQhegDD_S1JE1NjUG0MG-35" target="NQhegDD_S1JE1NjUG0MG-40">
          <mxGeometry relative="1" as="geometry" />
        </mxCell>
        <mxCell id="NQhegDD_S1JE1NjUG0MG-35" value="Address" style="ellipse;whiteSpace=wrap;html=1;" vertex="1" parent="1">
          <mxGeometry x="760" y="400" width="80" height="40" as="geometry" />
        </mxCell>
        <mxCell id="NQhegDD_S1JE1NjUG0MG-37" value="Street" style="ellipse;whiteSpace=wrap;html=1;" vertex="1" parent="1">
          <mxGeometry x="900" y="350" width="80" height="40" as="geometry" />
        </mxCell>
        <mxCell id="NQhegDD_S1JE1NjUG0MG-38" value="City" style="ellipse;whiteSpace=wrap;html=1;" vertex="1" parent="1">
          <mxGeometry x="950" y="400" width="80" height="40" as="geometry" />
        </mxCell>
        <mxCell id="NQhegDD_S1JE1NjUG0MG-39" value="State" style="ellipse;whiteSpace=wrap;html=1;" vertex="1" parent="1">
          <mxGeometry x="940" y="450" width="80" height="40" as="geometry" />
        </mxCell>
        <mxCell id="NQhegDD_S1JE1NjUG0MG-40" value="PostalCode" style="ellipse;whiteSpace=wrap;html=1;" vertex="1" parent="1">
          <mxGeometry x="860" y="480" width="80" height="40" as="geometry" />
        </mxCell>
        <mxCell id="NQhegDD_S1JE1NjUG0MG-45" style="rounded=0;orthogonalLoop=1;jettySize=auto;html=1;entryX=1;entryY=0.5;entryDx=0;entryDy=0;endArrow=none;startFill=0;" edge="1" parent="1" source="NQhegDD_S1JE1NjUG0MG-47" target="NQhegDD_S1JE1NjUG0MG-50">
          <mxGeometry relative="1" as="geometry" />
        </mxCell>
        <mxCell id="NQhegDD_S1JE1NjUG0MG-46" style="rounded=0;orthogonalLoop=1;jettySize=auto;html=1;entryX=1;entryY=0.5;entryDx=0;entryDy=0;endArrow=none;startFill=0;" edge="1" parent="1" source="NQhegDD_S1JE1NjUG0MG-47" target="NQhegDD_S1JE1NjUG0MG-49">
          <mxGeometry relative="1" as="geometry" />
        </mxCell>
        <mxCell id="NQhegDD_S1JE1NjUG0MG-47" value="&lt;u&gt;Name&lt;/u&gt;" style="ellipse;whiteSpace=wrap;html=1;" vertex="1" parent="1">
          <mxGeometry x="-160" y="310" width="80" height="40" as="geometry" />
        </mxCell>
        <mxCell id="NQhegDD_S1JE1NjUG0MG-48" value="ClientInfoID" style="ellipse;whiteSpace=wrap;html=1;" vertex="1" parent="1">
          <mxGeometry x="-140" y="250" width="80" height="40" as="geometry" />
        </mxCell>
        <mxCell id="NQhegDD_S1JE1NjUG0MG-49" value="LastName" style="ellipse;whiteSpace=wrap;html=1;" vertex="1" parent="1">
          <mxGeometry x="-280" y="330" width="80" height="40" as="geometry" />
        </mxCell>
        <mxCell id="NQhegDD_S1JE1NjUG0MG-50" value="FirstName" style="ellipse;whiteSpace=wrap;html=1;" vertex="1" parent="1">
          <mxGeometry x="-280" y="280" width="80" height="40" as="geometry" />
        </mxCell>
        <mxCell id="NQhegDD_S1JE1NjUG0MG-51" value="DateOfBirth" style="ellipse;whiteSpace=wrap;html=1;" vertex="1" parent="1">
          <mxGeometry x="-160" y="360" width="80" height="40" as="geometry" />
        </mxCell>
        <mxCell id="NQhegDD_S1JE1NjUG0MG-53" value="PhoneNumber" style="ellipse;whiteSpace=wrap;html=1;" vertex="1" parent="1">
          <mxGeometry x="-160" y="410" width="80" height="40" as="geometry" />
        </mxCell>
        <mxCell id="NQhegDD_S1JE1NjUG0MG-54" style="rounded=0;orthogonalLoop=1;jettySize=auto;html=1;entryX=1;entryY=0.5;entryDx=0;entryDy=0;exitX=1;exitY=0.5;exitDx=0;exitDy=0;endArrow=none;startFill=0;" edge="1" parent="1" source="NQhegDD_S1JE1NjUG0MG-58" target="NQhegDD_S1JE1NjUG0MG-59">
          <mxGeometry relative="1" as="geometry" />
        </mxCell>
        <mxCell id="NQhegDD_S1JE1NjUG0MG-55" style="rounded=0;orthogonalLoop=1;jettySize=auto;html=1;entryX=1;entryY=0.5;entryDx=0;entryDy=0;endArrow=none;startFill=0;" edge="1" parent="1" source="NQhegDD_S1JE1NjUG0MG-58" target="NQhegDD_S1JE1NjUG0MG-60">
          <mxGeometry relative="1" as="geometry" />
        </mxCell>
        <mxCell id="NQhegDD_S1JE1NjUG0MG-56" style="rounded=0;orthogonalLoop=1;jettySize=auto;html=1;entryX=1;entryY=0.5;entryDx=0;entryDy=0;exitX=1;exitY=0.5;exitDx=0;exitDy=0;endArrow=none;startFill=0;" edge="1" parent="1" source="NQhegDD_S1JE1NjUG0MG-58" target="NQhegDD_S1JE1NjUG0MG-61">
          <mxGeometry relative="1" as="geometry" />
        </mxCell>
        <mxCell id="NQhegDD_S1JE1NjUG0MG-57" style="rounded=0;orthogonalLoop=1;jettySize=auto;html=1;entryX=1;entryY=0.5;entryDx=0;entryDy=0;exitX=1;exitY=0.5;exitDx=0;exitDy=0;endArrow=none;startFill=0;" edge="1" parent="1" source="NQhegDD_S1JE1NjUG0MG-58" target="NQhegDD_S1JE1NjUG0MG-62">
          <mxGeometry relative="1" as="geometry" />
        </mxCell>
        <mxCell id="NQhegDD_S1JE1NjUG0MG-58" value="Address" style="ellipse;whiteSpace=wrap;html=1;" vertex="1" parent="1">
          <mxGeometry x="-160" y="470" width="80" height="40" as="geometry" />
        </mxCell>
        <mxCell id="NQhegDD_S1JE1NjUG0MG-59" value="Street" style="ellipse;whiteSpace=wrap;html=1;" vertex="1" parent="1">
          <mxGeometry x="-300" y="400" width="80" height="40" as="geometry" />
        </mxCell>
        <mxCell id="NQhegDD_S1JE1NjUG0MG-60" value="City" style="ellipse;whiteSpace=wrap;html=1;" vertex="1" parent="1">
          <mxGeometry x="-380" y="430" width="80" height="40" as="geometry" />
        </mxCell>
        <mxCell id="NQhegDD_S1JE1NjUG0MG-61" value="State" style="ellipse;whiteSpace=wrap;html=1;" vertex="1" parent="1">
          <mxGeometry x="-370" y="490" width="80" height="40" as="geometry" />
        </mxCell>
        <mxCell id="NQhegDD_S1JE1NjUG0MG-62" value="PostalCode" style="ellipse;whiteSpace=wrap;html=1;" vertex="1" parent="1">
          <mxGeometry x="-310" y="530" width="80" height="40" as="geometry" />
        </mxCell>
        <mxCell id="NQhegDD_S1JE1NjUG0MG-68" value="ServiceDate" style="ellipse;whiteSpace=wrap;html=1;" vertex="1" parent="1">
          <mxGeometry x="250" y="1130" width="90" height="40" as="geometry" />
        </mxCell>
        <mxCell id="MPVjwGa3bfI3qeMAtvyZ-5" style="rounded=0;orthogonalLoop=1;jettySize=auto;html=1;entryX=0.5;entryY=0;entryDx=0;entryDy=0;endArrow=none;startFill=0;" edge="1" parent="1" source="MPVjwGa3bfI3qeMAtvyZ-3" target="NQhegDD_S1JE1NjUG0MG-1">
          <mxGeometry relative="1" as="geometry" />
        </mxCell>
        <mxCell id="MPVjwGa3bfI3qeMAtvyZ-3" value="d" style="ellipse;whiteSpace=wrap;html=1;aspect=fixed;" vertex="1" parent="1">
          <mxGeometry x="470" y="330" width="20" height="20" as="geometry" />
        </mxCell>
        <mxCell id="MPVjwGa3bfI3qeMAtvyZ-6" style="rounded=0;orthogonalLoop=1;jettySize=auto;html=1;entryX=0.495;entryY=-0.05;entryDx=0;entryDy=0;entryPerimeter=0;endArrow=none;startFill=0;" edge="1" parent="1" source="MPVjwGa3bfI3qeMAtvyZ-3" target="NQhegDD_S1JE1NjUG0MG-5">
          <mxGeometry relative="1" as="geometry" />
        </mxCell>
        <mxCell id="MPVjwGa3bfI3qeMAtvyZ-11" style="rounded=0;orthogonalLoop=1;jettySize=auto;html=1;entryX=1;entryY=0.5;entryDx=0;entryDy=0;endArrow=none;startFill=0;shape=link;" edge="1" parent="1" source="MPVjwGa3bfI3qeMAtvyZ-7" target="MPVjwGa3bfI3qeMAtvyZ-9">
          <mxGeometry relative="1" as="geometry" />
        </mxCell>
        <mxCell id="MPVjwGa3bfI3qeMAtvyZ-13" value="M" style="edgeLabel;html=1;align=center;verticalAlign=middle;resizable=0;points=[];" connectable="0" vertex="1" parent="MPVjwGa3bfI3qeMAtvyZ-11">
          <mxGeometry x="0.1234" y="3" relative="1" as="geometry">
            <mxPoint as="offset" />
          </mxGeometry>
        </mxCell>
        <mxCell id="MPVjwGa3bfI3qeMAtvyZ-7" value="Creates" style="rhombus;whiteSpace=wrap;html=1;" vertex="1" parent="1">
          <mxGeometry x="360" y="540" width="80" height="80" as="geometry" />
        </mxCell>
        <mxCell id="MPVjwGa3bfI3qeMAtvyZ-16" style="rounded=0;orthogonalLoop=1;jettySize=auto;html=1;entryX=0.5;entryY=1;entryDx=0;entryDy=0;endArrow=none;startFill=0;shape=link;" edge="1" parent="1" source="MPVjwGa3bfI3qeMAtvyZ-9" target="MPVjwGa3bfI3qeMAtvyZ-14">
          <mxGeometry relative="1" as="geometry" />
        </mxCell>
        <mxCell id="MPVjwGa3bfI3qeMAtvyZ-17" value="1" style="edgeLabel;html=1;align=center;verticalAlign=middle;resizable=0;points=[];" connectable="0" vertex="1" parent="MPVjwGa3bfI3qeMAtvyZ-16">
          <mxGeometry x="0.0044" relative="1" as="geometry">
            <mxPoint as="offset" />
          </mxGeometry>
        </mxCell>
        <mxCell id="MPVjwGa3bfI3qeMAtvyZ-21" style="rounded=0;orthogonalLoop=1;jettySize=auto;html=1;endArrow=none;startFill=0;" edge="1" parent="1" source="MPVjwGa3bfI3qeMAtvyZ-9" target="MPVjwGa3bfI3qeMAtvyZ-20">
          <mxGeometry relative="1" as="geometry" />
        </mxCell>
        <mxCell id="MPVjwGa3bfI3qeMAtvyZ-25" value="1" style="edgeLabel;html=1;align=center;verticalAlign=middle;resizable=0;points=[];" connectable="0" vertex="1" parent="MPVjwGa3bfI3qeMAtvyZ-21">
          <mxGeometry x="0.2813" y="-5" relative="1" as="geometry">
            <mxPoint as="offset" />
          </mxGeometry>
        </mxCell>
        <mxCell id="MPVjwGa3bfI3qeMAtvyZ-34" style="rounded=0;orthogonalLoop=1;jettySize=auto;html=1;endArrow=none;startFill=0;exitX=0.5;exitY=1;exitDx=0;exitDy=0;" edge="1" parent="1" source="MPVjwGa3bfI3qeMAtvyZ-9" target="MPVjwGa3bfI3qeMAtvyZ-29">
          <mxGeometry relative="1" as="geometry" />
        </mxCell>
        <mxCell id="MPVjwGa3bfI3qeMAtvyZ-35" style="rounded=0;orthogonalLoop=1;jettySize=auto;html=1;entryX=0;entryY=0.5;entryDx=0;entryDy=0;endArrow=none;startFill=0;exitX=0.5;exitY=1;exitDx=0;exitDy=0;" edge="1" parent="1" source="MPVjwGa3bfI3qeMAtvyZ-9" target="MPVjwGa3bfI3qeMAtvyZ-28">
          <mxGeometry relative="1" as="geometry" />
        </mxCell>
        <mxCell id="MPVjwGa3bfI3qeMAtvyZ-36" style="rounded=0;orthogonalLoop=1;jettySize=auto;html=1;entryX=0;entryY=0;entryDx=0;entryDy=0;endArrow=none;startFill=0;exitX=0.5;exitY=1;exitDx=0;exitDy=0;" edge="1" parent="1" source="MPVjwGa3bfI3qeMAtvyZ-9" target="MPVjwGa3bfI3qeMAtvyZ-27">
          <mxGeometry relative="1" as="geometry" />
        </mxCell>
        <mxCell id="MPVjwGa3bfI3qeMAtvyZ-63" style="rounded=0;orthogonalLoop=1;jettySize=auto;html=1;entryX=0;entryY=0.5;entryDx=0;entryDy=0;exitX=0.5;exitY=1;exitDx=0;exitDy=0;" edge="1" parent="1" source="MPVjwGa3bfI3qeMAtvyZ-9" target="MPVjwGa3bfI3qeMAtvyZ-62">
          <mxGeometry relative="1" as="geometry" />
        </mxCell>
        <mxCell id="MPVjwGa3bfI3qeMAtvyZ-9" value="Appointments" style="rounded=0;whiteSpace=wrap;html=1;" vertex="1" parent="1">
          <mxGeometry x="130" y="680" width="120" height="40" as="geometry" />
        </mxCell>
        <mxCell id="MPVjwGa3bfI3qeMAtvyZ-10" value="&lt;u&gt;ServiceName&lt;/u&gt;" style="ellipse;whiteSpace=wrap;html=1;" vertex="1" parent="1">
          <mxGeometry x="150" y="1130" width="80" height="40" as="geometry" />
        </mxCell>
        <mxCell id="MPVjwGa3bfI3qeMAtvyZ-14" value="Has" style="rhombus;whiteSpace=wrap;html=1;" vertex="1" parent="1">
          <mxGeometry x="30" y="540" width="80" height="80" as="geometry" />
        </mxCell>
        <mxCell id="MPVjwGa3bfI3qeMAtvyZ-52" style="rounded=0;orthogonalLoop=1;jettySize=auto;html=1;entryX=0.5;entryY=1;entryDx=0;entryDy=0;exitX=0.5;exitY=0;exitDx=0;exitDy=0;" edge="1" parent="1" source="MPVjwGa3bfI3qeMAtvyZ-19" target="MPVjwGa3bfI3qeMAtvyZ-38">
          <mxGeometry relative="1" as="geometry" />
        </mxCell>
        <mxCell id="MPVjwGa3bfI3qeMAtvyZ-55" style="rounded=0;orthogonalLoop=1;jettySize=auto;html=1;entryX=0.5;entryY=1;entryDx=0;entryDy=0;exitX=0.5;exitY=0;exitDx=0;exitDy=0;" edge="1" parent="1" source="MPVjwGa3bfI3qeMAtvyZ-19" target="MPVjwGa3bfI3qeMAtvyZ-37">
          <mxGeometry relative="1" as="geometry" />
        </mxCell>
        <mxCell id="MPVjwGa3bfI3qeMAtvyZ-57" style="rounded=0;orthogonalLoop=1;jettySize=auto;html=1;entryX=0.5;entryY=1;entryDx=0;entryDy=0;exitX=0.5;exitY=0;exitDx=0;exitDy=0;" edge="1" parent="1" source="MPVjwGa3bfI3qeMAtvyZ-19" target="MPVjwGa3bfI3qeMAtvyZ-56">
          <mxGeometry relative="1" as="geometry">
            <mxPoint x="70" y="150" as="sourcePoint" />
          </mxGeometry>
        </mxCell>
        <mxCell id="MPVjwGa3bfI3qeMAtvyZ-19" value="Household" style="rounded=0;whiteSpace=wrap;html=1;" vertex="1" parent="1">
          <mxGeometry x="30" y="160" width="80" height="40" as="geometry" />
        </mxCell>
        <mxCell id="MPVjwGa3bfI3qeMAtvyZ-23" style="rounded=0;orthogonalLoop=1;jettySize=auto;html=1;exitX=0.5;exitY=1;exitDx=0;exitDy=0;" edge="1" parent="1" source="MPVjwGa3bfI3qeMAtvyZ-20" target="MPVjwGa3bfI3qeMAtvyZ-22">
          <mxGeometry relative="1" as="geometry">
            <mxPoint x="130" y="930" as="sourcePoint" />
          </mxGeometry>
        </mxCell>
        <mxCell id="MPVjwGa3bfI3qeMAtvyZ-26" value="M" style="edgeLabel;html=1;align=center;verticalAlign=middle;resizable=0;points=[];" connectable="0" vertex="1" parent="MPVjwGa3bfI3qeMAtvyZ-23">
          <mxGeometry x="0.0929" y="-1" relative="1" as="geometry">
            <mxPoint as="offset" />
          </mxGeometry>
        </mxCell>
        <mxCell id="MPVjwGa3bfI3qeMAtvyZ-20" value="Has" style="rhombus;whiteSpace=wrap;html=1;" vertex="1" parent="1">
          <mxGeometry x="75" y="850" width="80" height="80" as="geometry" />
        </mxCell>
        <mxCell id="MPVjwGa3bfI3qeMAtvyZ-24" value="ServiceID" style="ellipse;whiteSpace=wrap;html=1;" vertex="1" parent="1">
          <mxGeometry x="70" y="1090" width="80" height="40" as="geometry" />
        </mxCell>
        <mxCell id="MPVjwGa3bfI3qeMAtvyZ-27" value="&lt;u&gt;AppointmentID&lt;/u&gt;" style="ellipse;whiteSpace=wrap;html=1;" vertex="1" parent="1">
          <mxGeometry x="290" y="840" width="90" height="40" as="geometry" />
        </mxCell>
        <mxCell id="MPVjwGa3bfI3qeMAtvyZ-28" value="AppointmentDate" style="ellipse;whiteSpace=wrap;html=1;" vertex="1" parent="1">
          <mxGeometry x="390" y="840" width="90" height="40" as="geometry" />
        </mxCell>
        <mxCell id="MPVjwGa3bfI3qeMAtvyZ-29" value="FullfilledDate" style="ellipse;whiteSpace=wrap;html=1;" vertex="1" parent="1">
          <mxGeometry x="410" y="790" width="90" height="40" as="geometry" />
        </mxCell>
        <mxCell id="MPVjwGa3bfI3qeMAtvyZ-30" value="Email" style="ellipse;whiteSpace=wrap;html=1;" vertex="1" parent="1">
          <mxGeometry x="-160" y="520" width="80" height="40" as="geometry" />
        </mxCell>
        <mxCell id="MPVjwGa3bfI3qeMAtvyZ-32" value="Services" style="rounded=0;whiteSpace=wrap;html=1;" vertex="1" parent="1">
          <mxGeometry x="177" y="1010" width="90" height="50" as="geometry" />
        </mxCell>
        <mxCell id="MPVjwGa3bfI3qeMAtvyZ-58" style="rounded=0;orthogonalLoop=1;jettySize=auto;html=1;entryX=1;entryY=0.5;entryDx=0;entryDy=0;endArrow=none;startFill=0;" edge="1" parent="1" source="MPVjwGa3bfI3qeMAtvyZ-22" target="MPVjwGa3bfI3qeMAtvyZ-24">
          <mxGeometry relative="1" as="geometry" />
        </mxCell>
        <mxCell id="MPVjwGa3bfI3qeMAtvyZ-59" style="rounded=0;orthogonalLoop=1;jettySize=auto;html=1;entryX=0.5;entryY=0;entryDx=0;entryDy=0;endArrow=none;startFill=0;" edge="1" parent="1" source="MPVjwGa3bfI3qeMAtvyZ-22" target="MPVjwGa3bfI3qeMAtvyZ-10">
          <mxGeometry relative="1" as="geometry" />
        </mxCell>
        <mxCell id="MPVjwGa3bfI3qeMAtvyZ-61" style="rounded=0;orthogonalLoop=1;jettySize=auto;html=1;entryX=0;entryY=0.5;entryDx=0;entryDy=0;endArrow=none;startFill=0;" edge="1" parent="1" source="MPVjwGa3bfI3qeMAtvyZ-22" target="MPVjwGa3bfI3qeMAtvyZ-33">
          <mxGeometry relative="1" as="geometry" />
        </mxCell>
        <mxCell id="MPVjwGa3bfI3qeMAtvyZ-22" value="Services" style="rounded=0;whiteSpace=wrap;html=1;" vertex="1" parent="1">
          <mxGeometry x="182" y="1015" width="80" height="40" as="geometry" />
        </mxCell>
        <mxCell id="MPVjwGa3bfI3qeMAtvyZ-33" value="Category" style="ellipse;whiteSpace=wrap;html=1;" vertex="1" parent="1">
          <mxGeometry x="330" y="1090" width="90" height="40" as="geometry" />
        </mxCell>
        <mxCell id="MPVjwGa3bfI3qeMAtvyZ-37" value="&lt;u&gt;HouseholdID&lt;/u&gt;" style="ellipse;whiteSpace=wrap;html=1;" vertex="1" parent="1">
          <mxGeometry x="-140" y="70" width="80" height="40" as="geometry" />
        </mxCell>
        <mxCell id="MPVjwGa3bfI3qeMAtvyZ-53" style="rounded=0;orthogonalLoop=1;jettySize=auto;html=1;" edge="1" parent="1" source="MPVjwGa3bfI3qeMAtvyZ-38" target="MPVjwGa3bfI3qeMAtvyZ-40">
          <mxGeometry relative="1" as="geometry" />
        </mxCell>
        <mxCell id="MPVjwGa3bfI3qeMAtvyZ-54" style="rounded=0;orthogonalLoop=1;jettySize=auto;html=1;entryX=0.5;entryY=1;entryDx=0;entryDy=0;" edge="1" parent="1" source="MPVjwGa3bfI3qeMAtvyZ-38" target="MPVjwGa3bfI3qeMAtvyZ-39">
          <mxGeometry relative="1" as="geometry" />
        </mxCell>
        <mxCell id="MPVjwGa3bfI3qeMAtvyZ-38" value="Name" style="ellipse;whiteSpace=wrap;html=1;" vertex="1" parent="1">
          <mxGeometry x="-40" y="35" width="80" height="40" as="geometry" />
        </mxCell>
        <mxCell id="MPVjwGa3bfI3qeMAtvyZ-39" value="LastName" style="ellipse;whiteSpace=wrap;html=1;" vertex="1" parent="1">
          <mxGeometry x="20" y="-30" width="80" height="40" as="geometry" />
        </mxCell>
        <mxCell id="MPVjwGa3bfI3qeMAtvyZ-40" value="FirstName" style="ellipse;whiteSpace=wrap;html=1;" vertex="1" parent="1">
          <mxGeometry x="-100" y="-30" width="80" height="40" as="geometry" />
        </mxCell>
        <mxCell id="MPVjwGa3bfI3qeMAtvyZ-45" style="rounded=0;orthogonalLoop=1;jettySize=auto;html=1;exitX=0.5;exitY=0;exitDx=0;exitDy=0;entryX=0.5;entryY=1;entryDx=0;entryDy=0;" edge="1" parent="1" source="MPVjwGa3bfI3qeMAtvyZ-43" target="MPVjwGa3bfI3qeMAtvyZ-19">
          <mxGeometry relative="1" as="geometry" />
        </mxCell>
        <mxCell id="MPVjwGa3bfI3qeMAtvyZ-47" value="1" style="edgeLabel;html=1;align=center;verticalAlign=middle;resizable=0;points=[];" connectable="0" vertex="1" parent="MPVjwGa3bfI3qeMAtvyZ-45">
          <mxGeometry x="-0.211" y="3" relative="1" as="geometry">
            <mxPoint y="1" as="offset" />
          </mxGeometry>
        </mxCell>
        <mxCell id="MPVjwGa3bfI3qeMAtvyZ-43" value="Has" style="rhombus;whiteSpace=wrap;html=1;" vertex="1" parent="1">
          <mxGeometry x="190" y="350" width="80" height="80" as="geometry" />
        </mxCell>
        <mxCell id="MPVjwGa3bfI3qeMAtvyZ-48" value="Gender" style="ellipse;whiteSpace=wrap;html=1;" vertex="1" parent="1">
          <mxGeometry x="-150" y="570" width="80" height="40" as="geometry" />
        </mxCell>
        <mxCell id="MPVjwGa3bfI3qeMAtvyZ-50" value="Gender" style="ellipse;whiteSpace=wrap;html=1;" vertex="1" parent="1">
          <mxGeometry x="740" y="460" width="80" height="40" as="geometry" />
        </mxCell>
        <mxCell id="MPVjwGa3bfI3qeMAtvyZ-56" value="Gender" style="ellipse;whiteSpace=wrap;html=1;" vertex="1" parent="1">
          <mxGeometry x="60" y="40" width="80" height="40" as="geometry" />
        </mxCell>
        <mxCell id="MPVjwGa3bfI3qeMAtvyZ-60" style="rounded=0;orthogonalLoop=1;jettySize=auto;html=1;entryX=0.402;entryY=0.007;entryDx=0;entryDy=0;entryPerimeter=0;endArrow=none;startFill=0;" edge="1" parent="1" source="MPVjwGa3bfI3qeMAtvyZ-22" target="NQhegDD_S1JE1NjUG0MG-68">
          <mxGeometry relative="1" as="geometry" />
        </mxCell>
        <mxCell id="MPVjwGa3bfI3qeMAtvyZ-62" value="Status" style="ellipse;whiteSpace=wrap;html=1;" vertex="1" parent="1">
          <mxGeometry x="420" y="730" width="90" height="40" as="geometry" />
        </mxCell>
      </root>
    </mxGraphModel>
  </diagram>
</mxfile>
